<?xml version="1.0" encoding="utf-8"?>
<!-- Generator: Adobe Illustrator 21.0.0, SVG Export Plug-In . SVG Version: 6.00 Build 0)  -->
<svg version="1.1" id="Слой_1" xmlns="http://www.w3.org/2000/svg" xmlns:xlink="http://www.w3.org/1999/xlink" x="0px" y="0px"
	 viewBox="0 0 21 12" style="enable-background:new 0 0 21 12;" xml:space="preserve">
<style type="text/css">
	.st0{fill:#859098;}
</style>
<g>
	<path class="st0" d="M20.4,0H0.6C0.3,0,0,0.3,0,0.6s0.3,0.6,0.6,0.6h19.8c0.3,0,0.6-0.3,0.6-0.6S20.7,0,20.4,0z"/>
	<path class="st0" d="M16.9,5.1H4.1c-0.3,0-0.6,0.3-0.6,0.6c0,0.3,0.3,0.6,0.6,0.6h12.8c0.3,0,0.6-0.3,0.6-0.6
		C17.5,5.3,17.3,5.1,16.9,5.1z"/>
	<path class="st0" d="M13.1,10.1H8c-0.3,0-0.6,0.3-0.6,0.6s0.3,0.6,0.6,0.6h5.1c0.3,0,0.6-0.3,0.6-0.6S13.4,10.1,13.1,10.1z"/>
</g>
</svg>
