<svg xmlns="http://www.w3.org/2000/svg" viewBox="0 0 15 15"><defs><style>.cls-1{fill:#004d73;}</style></defs><title>Ресурс 1</title><g id="Слой_2" data-name="Слой 2"><g id="Слой_1-2" data-name="Слой 1"><path class="cls-1" d="M14.44,4.66l0,0A7.48,7.48,0,0,0,8,0H7.49A7.5,7.5,0,0,0,.58,10.37,7.47,7.47,0,0,0,7.5,15h.43a7.49,7.49,0,0,0,6.5-10.32ZM1.63,4.21A6.68,6.68,0,0,1,4.79,1.34l.46-.2-.31.4A7.94,7.94,0,0,0,3.65,4.3l0,.1H1.52ZM1.15,9.76a6.63,6.63,0,0,1,0-4.51l0-.09H3.45l0,.15a13.1,13.1,0,0,0-.18,2.19A12.15,12.15,0,0,0,3.44,9.7l0,.15H1.18Zm3.74,4A6.74,6.74,0,0,1,1.63,10.8l-.11-.19H3.65l0,.09A8.16,8.16,0,0,0,5,13.53l.31.39Zm2.41.49-.16,0c-1.08-.32-2.07-1.59-2.64-3.39l-.05-.17H7.3Zm0-4.37h-3l0-.1A11.13,11.13,0,0,1,4,7.5a12.72,12.72,0,0,1,.2-2.24l0-.11H7.3Zm0-5.44H4.41l0-.16C5,2.38,6,1.14,7.14.84L7.3.8ZM10.8,1.63a6.72,6.72,0,0,1,2.57,2.58l.11.19H11.75l0-.1a8.08,8.08,0,0,0-1.09-2.49l-.31-.46ZM8.06.8l.16,0c1.16.3,2.14,1.54,2.69,3.4l0,.17H8.06Zm0,4.37h3.07l0,.11a12.25,12.25,0,0,1,.2,2.24,11.13,11.13,0,0,1-.22,2.24l0,.1h-3Zm.16,9-.16,0v-3.6h2.85l-.05.17C10.3,12.58,9.31,13.84,8.23,14.16Zm5.14-3.36a6.67,6.67,0,0,1-2.68,2.64l-.48.26.32-.45a8.45,8.45,0,0,0,1.17-2.55l0-.09h1.76Zm.47-1,0,.09H11.9l0-.15a12.15,12.15,0,0,0,.19-2.19,13.1,13.1,0,0,0-.18-2.19l0-.15h1.9l0,.09A6.63,6.63,0,0,1,13.84,9.76Z"/></g></g></svg>