<?xml version="1.0" encoding="utf-8"?>
<!-- Generator: Adobe Illustrator 16.0.0, SVG Export Plug-In . SVG Version: 6.00 Build 0)  -->
<!DOCTYPE svg PUBLIC "-//W3C//DTD SVG 1.1//EN" "http://www.w3.org/Graphics/SVG/1.1/DTD/svg11.dtd">
<svg version="1.1" id="Layer_1" xmlns="http://www.w3.org/2000/svg" xmlns:xlink="http://www.w3.org/1999/xlink" x="0px" y="0px"
	 width="200px" height="30px" viewBox="0 0 200 30" enable-background="new 0 0 200 30" xml:space="preserve">
<g>
	<g>
		<path fill="#5D6C78" d="M18.273,5.78l-7.176,18.315H9.375L2.199,5.78h1.488l6.558,16.643L16.801,5.78H18.273z"/>
		<path fill="#5D6C78" d="M26.479,24.096h-1.338V5.78h1.338V24.096z"/>
		<path fill="#5D6C78" d="M49.737,24.096h-1.472l-1.823-4.867c-0.179-0.469-0.377-0.908-0.595-1.321
			c-0.217-0.413-0.471-0.772-0.76-1.079c-0.291-0.307-0.622-0.549-0.996-0.728c-0.373-0.178-0.811-0.268-1.312-0.268h-6.406v8.263
			h-1.338V5.78h8.246c0.769,0,1.514,0.07,2.232,0.209c0.72,0.139,1.36,0.387,1.924,0.744c0.562,0.357,1.012,0.85,1.346,1.48
			c0.335,0.63,0.503,1.436,0.503,2.417c0,0.614-0.075,1.185-0.227,1.715c-0.149,0.53-0.379,1.003-0.685,1.421
			c-0.308,0.418-0.698,0.775-1.172,1.071s-1.028,0.51-1.664,0.644c0.346,0.268,0.63,0.524,0.853,0.77
			c0.224,0.245,0.415,0.508,0.577,0.786c0.162,0.279,0.308,0.586,0.436,0.92s0.275,0.72,0.442,1.154L49.737,24.096z M36.373,14.495
			h6.356c0.903,0,1.677-0.066,2.324-0.2c0.646-0.134,1.18-0.354,1.599-0.661c0.417-0.306,0.727-0.705,0.927-1.196
			c0.202-0.49,0.302-1.093,0.302-1.807c0-1.26-0.399-2.16-1.196-2.701c-0.798-0.541-1.987-0.812-3.57-0.812h-6.741V14.495z"/>
		<path fill="#5D6C78" d="M68.983,7.118h-6.405v16.978h-1.339V7.118H54.9V5.78h14.083V7.118z"/>
		<path fill="#5D6C78" d="M88.78,24.096H75.55V5.78h12.778v1.338h-11.44v6.774h10.722v1.338H76.888v7.527H88.78V24.096z"/>
		<path fill="#5D6C78" d="M110.818,24.096h-1.472l-1.823-4.867c-0.179-0.469-0.377-0.908-0.594-1.321
			c-0.218-0.413-0.471-0.772-0.761-1.079c-0.291-0.307-0.622-0.549-0.996-0.728c-0.373-0.178-0.811-0.268-1.312-0.268h-6.408v8.263
			h-1.337V5.78h8.246c0.769,0,1.514,0.07,2.232,0.209c0.72,0.139,1.36,0.387,1.924,0.744c0.562,0.357,1.012,0.85,1.347,1.48
			c0.334,0.63,0.502,1.436,0.502,2.417c0,0.614-0.075,1.185-0.227,1.715c-0.15,0.53-0.379,1.003-0.685,1.421
			c-0.308,0.418-0.698,0.775-1.171,1.071c-0.475,0.295-1.029,0.51-1.665,0.644c0.346,0.268,0.63,0.524,0.853,0.77
			c0.224,0.245,0.416,0.508,0.577,0.786c0.161,0.279,0.308,0.586,0.436,0.92s0.276,0.72,0.442,1.154L110.818,24.096z M97.453,14.495
			h6.357c0.903,0,1.678-0.066,2.324-0.2c0.646-0.134,1.18-0.354,1.599-0.661c0.417-0.306,0.727-0.705,0.927-1.196
			c0.201-0.49,0.302-1.093,0.302-1.807c0-1.26-0.399-2.16-1.196-2.701c-0.797-0.541-1.987-0.812-3.57-0.812h-6.742V14.495z"/>
		<path fill="#5D6C78" d="M132.956,24.096H131.2L120.027,7.37v16.726h-1.34V5.78h1.841l11.091,16.693V5.78h1.337V24.096z"/>
		<path fill="#5D6C78" d="M142.767,24.096h-1.338V5.78h1.338V24.096z"/>
		<path fill="#5D6C78" d="M163.935,7.118h-6.405v16.978h-1.339V7.118h-6.339V5.78h14.083V7.118z"/>
		<path fill="#5D6C78" d="M184.618,5.78l-7.159,10.454v7.861h-1.338v-7.861L168.895,5.78h1.573l6.322,9.049l6.272-9.049H184.618z"/>
	</g>
	<g opacity="0.5">
		<polygon fill="#5D6C78" points="188.803,6.309 190.394,6.309 190.394,10.568 190.979,10.568 190.979,6.309 192.587,6.309 
			192.587,5.724 188.803,5.724 		"/>
		<polygon fill="#5D6C78" points="197.818,5.724 196.216,9.689 194.626,5.724 193.93,5.724 193.93,10.568 194.516,10.568 
			194.516,7.037 195.923,10.491 195.955,10.568 196.476,10.568 197.92,7.035 197.92,10.568 198.506,10.568 198.506,5.724 		"/>
	</g>
</g>
</svg>
